HIERARCHY
ROOT newVegas:Hips
{
	OFFSET 0.000000 96.479958 0.000000
	CHANNELS 6 Xposition Yposition Zposition Xrotation Yrotation Zrotation
	JOINT newVegas:Pelvis
	{
		OFFSET 0.000000 0.000000 0.000000
		CHANNELS 3 Xrotation Yrotation Zrotation
		JOINT newVegas:LeftUpLeg
		{
			OFFSET 18.735201 -5.666702 -4.541200
			CHANNELS 3 Xrotation Yrotation Zrotation
			JOINT newVegas:LeftLeg
			{
				OFFSET -0.021200 -31.938179 0.493100
				CHANNELS 3 Xrotation Yrotation Zrotation
				JOINT newVegas:LeftFoot
				{
					OFFSET 0.021200 -31.938179 -4.336299
					CHANNELS 3 Xrotation Yrotation Zrotation
					JOINT newVegas:LeftToeBase
					{
						OFFSET 0.943001 -26.722000 15.023500
						CHANNELS 3 Xrotation Yrotation Zrotation
						End Site
						{
							OFFSET 0.000000 30.670183 0.000000
						}
					}
				}
				JOINT newVegas:Left_PantLeg
				{
					OFFSET 0.663870 -9.044666 -1.108900
					CHANNELS 3 Xrotation Yrotation Zrotation
					End Site
					{
						OFFSET 1.415995 20.635357 0.000000
					}
				}
			}
		}
		JOINT newVegas:RightUpLeg
		{
			OFFSET -18.735201 -5.666702 -4.541200
			CHANNELS 3 Xrotation Yrotation Zrotation
			JOINT newVegas:RightLeg
			{
				OFFSET 0.018946 -31.938133 0.493100
				CHANNELS 3 Xrotation Yrotation Zrotation
				JOINT newVegas:RightFoot
				{
					OFFSET -0.018946 -31.938126 -4.336299
					CHANNELS 3 Xrotation Yrotation Zrotation
					JOINT newVegas:RightToeBase
					{
						OFFSET -0.943001 -26.722004 15.023500
						CHANNELS 3 Xrotation Yrotation Zrotation
						End Site
						{
							OFFSET 0.000000 30.670187 0.000000
						}
					}
				}
				JOINT newVegas:Right_PantLeg
				{
					OFFSET -0.661674 -9.044716 -1.108900
					CHANNELS 3 Xrotation Yrotation Zrotation
					End Site
					{
						OFFSET -1.415958 20.635269 0.000000
					}
				}
			}
		}
	}
	JOINT newVegas:Spine
	{
		OFFSET 0.000000 10.199997 -0.299500
		CHANNELS 3 Xrotation Yrotation Zrotation
		JOINT newVegas:Spine1
		{
			OFFSET 0.000000 11.900002 -1.516600
			CHANNELS 3 Xrotation Yrotation Zrotation
			JOINT newVegas:Spine2
			{
				OFFSET 0.000000 13.600006 -2.842500
				CHANNELS 3 Xrotation Yrotation Zrotation
				JOINT newVegas:Neck
				{
					OFFSET 0.000000 9.624100 -2.890100
					CHANNELS 3 Xrotation Yrotation Zrotation
					JOINT newVegas:Head
					{
						OFFSET 0.000000 14.068802 -1.351900
						CHANNELS 3 Xrotation Yrotation Zrotation
						JOINT newVegas:Hair_Back
						{
							OFFSET 0.000000 3.231903 -17.524799
							CHANNELS 3 Xrotation Yrotation Zrotation
							End Site
							{
								OFFSET 0.000000 19.849884 0.000000
							}
						}
						JOINT newVegas:Hair_Front
						{
							OFFSET 0.000000 31.260406 4.573800
							CHANNELS 3 Xrotation Yrotation Zrotation
							JOINT newVegas:Hair_Front1
							{
								OFFSET 0.000000 2.284103 11.993300
								CHANNELS 3 Xrotation Yrotation Zrotation
								JOINT newVegas:Hair_Front2
								{
									OFFSET 0.000000 2.284103 11.993300
									CHANNELS 3 Xrotation Yrotation Zrotation
									End Site
									{
										OFFSET 0.000000 12.208862 0.000000
									}
								}
							}
						}
						JOINT newVegas:Jowel
						{
							OFFSET 0.000000 -7.458206 6.864100
							CHANNELS 3 Xrotation Yrotation Zrotation
							End Site
							{
								OFFSET 0.000000 19.849884 0.000000
							}
						}
					}
				}
				JOINT newVegas:LeftShoulder
				{
					OFFSET 15.263000 10.923401 -0.547700
					CHANNELS 3 Xrotation Yrotation Zrotation
					JOINT newVegas:LeftArm
					{
						OFFSET 25.438599 -2.830597 -13.032500
						CHANNELS 3 Xrotation Yrotation Zrotation
						JOINT newVegas:LeftForeArm
						{
							OFFSET 29.960503 0.000000 0.000000
							CHANNELS 3 Xrotation Yrotation Zrotation
							JOINT newVegas:LeftHand
							{
								OFFSET 27.849251 0.000000 0.000000
								CHANNELS 3 Xrotation Yrotation Zrotation
								JOINT newVegas:LeftHandThumb1
								{
									OFFSET 4.487587 -3.305161 6.305391
									CHANNELS 3 Xrotation Yrotation Zrotation
									JOINT newVegas:LeftHandThumb2
									{
										OFFSET 5.480453 -3.164139 3.164143
										CHANNELS 3 Xrotation Yrotation Zrotation
										JOINT newVegas:LeftHandThumb3
										{
											OFFSET 5.159721 -2.978973 2.978967
											CHANNELS 3 Xrotation Yrotation Zrotation
											End Site
											{
												OFFSET 2.494507 5.926697 1.738678
											}
										}
									}
								}
								JOINT newVegas:LeftHandIndex1
								{
									OFFSET 18.578728 -0.527832 5.208049
									CHANNELS 3 Xrotation Yrotation Zrotation
									JOINT newVegas:LeftHandIndex2
									{
										OFFSET 3.192009 0.000000 0.000000
										CHANNELS 3 Xrotation Yrotation Zrotation
										JOINT newVegas:LeftHandIndex3
										{
											OFFSET 3.835129 0.000000 0.000000
											CHANNELS 3 Xrotation Yrotation Zrotation
											End Site
											{
												OFFSET -0.034599 3.816971 0.371180
											}
										}
									}
								}
								JOINT newVegas:LeftHandMiddle1
								{
									OFFSET 18.476105 0.000000 0.000000
									CHANNELS 3 Xrotation Yrotation Zrotation
									JOINT newVegas:LeftHandMiddle2
									{
										OFFSET 3.324875 0.000000 0.000000
										CHANNELS 3 Xrotation Yrotation Zrotation
										JOINT newVegas:LeftHandMiddle3
										{
											OFFSET 4.596550 0.000000 0.000000
											CHANNELS 3 Xrotation Yrotation Zrotation
											End Site
											{
												OFFSET 0.057701 4.578827 0.399218
											}
										}
									}
								}
								JOINT newVegas:LeftHandRing1
								{
									OFFSET 17.732719 0.121887 -4.201567
									CHANNELS 3 Xrotation Yrotation Zrotation
									JOINT newVegas:LeftHandRing2
									{
										OFFSET 2.733170 0.000000 0.000000
										CHANNELS 3 Xrotation Yrotation Zrotation
										JOINT newVegas:LeftHandRing3
										{
											OFFSET 3.178268 0.000000 0.000000
											CHANNELS 3 Xrotation Yrotation Zrotation
											End Site
											{
												OFFSET 0.119102 3.170624 0.185394
											}
										}
									}
								}
								JOINT newVegas:LeftHandPinky1
								{
									OFFSET 15.989624 -0.606689 -7.535461
									CHANNELS 3 Xrotation Yrotation Zrotation
									JOINT newVegas:LeftHandPinky2
									{
										OFFSET 2.538986 0.000000 0.000000
										CHANNELS 3 Xrotation Yrotation Zrotation
										JOINT newVegas:LeftHandPinky3
										{
											OFFSET 2.593102 0.000000 0.000000
											CHANNELS 3 Xrotation Yrotation Zrotation
											End Site
											{
												OFFSET -0.150902 2.584198 0.152708
											}
										}
									}
								}
							}
							JOINT newVegas:Left_Sleeve
							{
								OFFSET 0.267448 -0.649796 0.577675
								CHANNELS 3 Xrotation Yrotation Zrotation
								End Site
								{
									OFFSET 0.000000 15.991241 0.000000
								}
							}
							JOINT newVegas:Left_CapeC
							{
								OFFSET 15.715958 -8.608795 -6.935905
								CHANNELS 3 Xrotation Yrotation Zrotation
								JOINT newVegas:Left_CapeC1
								{
									OFFSET 0.000000 -8.688499 0.000000
									CHANNELS 3 Xrotation Yrotation Zrotation
									End Site
									{
										OFFSET 0.000000 8.688499 0.000000
									}
								}
							}
						}
						JOINT newVegas:Left_CapeB
						{
							OFFSET 26.118385 -8.608795 -7.079235
							CHANNELS 3 Xrotation Yrotation Zrotation
							JOINT newVegas:Left_CapeB1
							{
								OFFSET 0.000000 -8.688499 0.000000
								CHANNELS 3 Xrotation Yrotation Zrotation
								End Site
								{
									OFFSET 0.000000 8.688499 0.000000
								}
							}
						}
						JOINT newVegas:Left_CapeA
						{
							OFFSET 5.115639 -8.608795 -10.395809
							CHANNELS 3 Xrotation Yrotation Zrotation
							JOINT newVegas:Left_CapeA1
							{
								OFFSET 0.000000 -8.688499 0.000000
								CHANNELS 3 Xrotation Yrotation Zrotation
								End Site
								{
									OFFSET 0.000000 8.688499 0.000000
								}
							}
						}
					}
				}
				JOINT newVegas:RightShoulder
				{
					OFFSET -15.263000 10.923401 -0.547700
					CHANNELS 3 Xrotation Yrotation Zrotation
					JOINT newVegas:RightArm
					{
						OFFSET -25.438599 -2.830597 -13.032500
						CHANNELS 3 Xrotation Yrotation Zrotation
						JOINT newVegas:RightForeArm
						{
							OFFSET -29.960503 0.000000 0.000000
							CHANNELS 3 Xrotation Yrotation Zrotation
							JOINT newVegas:RightHand
							{
								OFFSET -27.849251 0.000000 0.000000
								CHANNELS 3 Xrotation Yrotation Zrotation
								JOINT newVegas:RightHandThumb1
								{
									OFFSET -4.487587 -3.305161 6.305391
									CHANNELS 3 Xrotation Yrotation Zrotation
									JOINT newVegas:RightHandThumb2
									{
										OFFSET -5.480453 -3.164139 3.164143
										CHANNELS 3 Xrotation Yrotation Zrotation
										JOINT newVegas:RightHandThumb3
										{
											OFFSET -5.159721 -2.978973 2.978967
											CHANNELS 3 Xrotation Yrotation Zrotation
											End Site
											{
												OFFSET -2.494507 5.926697 1.738678
											}
										}
									}
								}
								JOINT newVegas:RightHandIndex1
								{
									OFFSET -18.578728 -0.527832 5.208049
									CHANNELS 3 Xrotation Yrotation Zrotation
									JOINT newVegas:RightHandIndex2
									{
										OFFSET -3.192009 0.000000 0.000000
										CHANNELS 3 Xrotation Yrotation Zrotation
										JOINT newVegas:RightHandIndex3
										{
											OFFSET -3.835129 0.000000 0.000000
											CHANNELS 3 Xrotation Yrotation Zrotation
											End Site
											{
												OFFSET 0.034599 3.816971 0.371180
											}
										}
									}
								}
								JOINT newVegas:RightHandMiddle1
								{
									OFFSET -18.476105 0.000000 0.000000
									CHANNELS 3 Xrotation Yrotation Zrotation
									JOINT newVegas:RightHandMiddle2
									{
										OFFSET -3.324875 0.000000 0.000000
										CHANNELS 3 Xrotation Yrotation Zrotation
										JOINT newVegas:RightHandMiddle3
										{
											OFFSET -4.596550 0.000000 0.000000
											CHANNELS 3 Xrotation Yrotation Zrotation
											End Site
											{
												OFFSET -0.057701 4.578827 0.399218
											}
										}
									}
								}
								JOINT newVegas:RightHandRing1
								{
									OFFSET -17.732719 0.121887 -4.201567
									CHANNELS 3 Xrotation Yrotation Zrotation
									JOINT newVegas:RightHandRing2
									{
										OFFSET -2.733170 0.000000 0.000000
										CHANNELS 3 Xrotation Yrotation Zrotation
										JOINT newVegas:RightHandRing3
										{
											OFFSET -3.178268 0.000000 0.000000
											CHANNELS 3 Xrotation Yrotation Zrotation
											End Site
											{
												OFFSET -0.119102 3.170624 0.185394
											}
										}
									}
								}
								JOINT newVegas:RightHandPinky1
								{
									OFFSET -15.989624 -0.606689 -7.535461
									CHANNELS 3 Xrotation Yrotation Zrotation
									JOINT newVegas:RightHandPinky2
									{
										OFFSET -2.538986 0.000000 0.000000
										CHANNELS 3 Xrotation Yrotation Zrotation
										JOINT newVegas:RightHandPinky3
										{
											OFFSET -2.593102 0.000000 0.000000
											CHANNELS 3 Xrotation Yrotation Zrotation
											End Site
											{
												OFFSET 0.150902 2.584198 0.152708
											}
										}
									}
								}
							}
							JOINT newVegas:Right_CapeC
							{
								OFFSET -15.715958 -8.608795 -6.935905
								CHANNELS 3 Xrotation Yrotation Zrotation
								JOINT newVegas:Right_CapeC1
								{
									OFFSET 0.000000 -8.688499 0.000000
									CHANNELS 3 Xrotation Yrotation Zrotation
									End Site
									{
										OFFSET 0.000000 8.688499 0.000000
									}
								}
							}
							JOINT newVegas:Right_Sleeve
							{
								OFFSET -0.267448 -0.649994 0.577675
								CHANNELS 3 Xrotation Yrotation Zrotation
								End Site
								{
									OFFSET 0.000000 15.991302 0.000000
								}
							}
						}
						JOINT newVegas:Right_CapeA
						{
							OFFSET -5.115540 -8.608795 -10.395824
							CHANNELS 3 Xrotation Yrotation Zrotation
							JOINT newVegas:Right_CapeA1
							{
								OFFSET 0.000000 -8.688499 0.000000
								CHANNELS 3 Xrotation Yrotation Zrotation
								End Site
								{
									OFFSET 0.000000 8.688499 0.000000
								}
							}
						}
						JOINT newVegas:Right_CapeB
						{
							OFFSET -26.118187 -8.608795 -7.079266
							CHANNELS 3 Xrotation Yrotation Zrotation
							JOINT newVegas:Right_CapeB1
							{
								OFFSET 0.000000 -8.688499 0.000000
								CHANNELS 3 Xrotation Yrotation Zrotation
								End Site
								{
									OFFSET 0.000000 8.688499 0.000000
								}
							}
						}
					}
				}
				JOINT newVegas:Left_Collar
				{
					OFFSET 18.625099 8.655502 8.828100
					CHANNELS 3 Xrotation Yrotation Zrotation
					JOINT newVegas:Left_Collar1
					{
						OFFSET 14.783401 10.540405 -1.259500
						CHANNELS 3 Xrotation Yrotation Zrotation
						End Site
						{
							OFFSET 0.000000 18.199875 0.000000
						}
					}
				}
				JOINT newVegas:Collar_Back
				{
					OFFSET 0.000000 15.630707 -20.132601
					CHANNELS 3 Xrotation Yrotation Zrotation
					End Site
					{
						OFFSET 0.000000 22.523010 0.000000
					}
				}
				JOINT newVegas:Left_Peck
				{
					OFFSET 17.239599 -5.132599 25.482599
					CHANNELS 3 Xrotation Yrotation Zrotation
					End Site
					{
						OFFSET 0.000000 22.523010 0.000000
					}
				}
				JOINT newVegas:Right_Peck
				{
					OFFSET -17.239599 -5.132202 25.482599
					CHANNELS 3 Xrotation Yrotation Zrotation
					End Site
					{
						OFFSET 0.000000 22.523010 0.000000
					}
				}
				JOINT newVegas:Right_Collar
				{
					OFFSET -18.625099 8.655792 8.828100
					CHANNELS 3 Xrotation Yrotation Zrotation
					JOINT newVegas:Right_Collar1
					{
						OFFSET -14.783401 10.539993 -1.259500
						CHANNELS 3 Xrotation Yrotation Zrotation
						End Site
						{
							OFFSET 0.000000 18.199631 0.000000
						}
					}
				}
			}
		}
		JOINT newVegas:Belly
		{
			OFFSET 0.000000 -6.540398 9.014299
			CHANNELS 3 Xrotation Yrotation Zrotation
			End Site
			{
				OFFSET 0.000000 11.566666 0.000000
			}
		}
	}
	JOINT newVegas:ElvisFacialAnim_Joint
	{
		OFFSET 1.000000 -95.330101 -8.825800
		CHANNELS 3 Xrotation Yrotation Zrotation
		End Site
		{
			OFFSET 0.000000 35.315800 0.000000
		}
	}
}
MOTION
Frames: 4
Frame Time: 0.033333
2.132179 14.919449 19.731903 -31.602432 -8.366339 -12.927258 0.000000 -0.000000 0.000001 -143.222551 -19.045752 -0.515032 92.807839 -7.552232 9.633162 70.706487 -0.948004 -5.467905 0.000001 0.000000 0.000000 -0.000001 -0.000000 -0.000001 -117.256111 -43.623745 -79.343644 118.063508 13.039887 12.255577 43.264075 19.019283 14.708479 0.000001 -0.000001 -0.000001 0.000001 -0.000001 -0.000000 31.468635 -1.164707 6.105317 23.652464 1.711870 0.252618 8.432215 1.908794 -0.514048 -1.017111 1.385306 0.066219 -1.017107 1.385304 0.066219 -0.000001 0.000000 0.000000 -1.017034 1.385306 0.066219 -1.017157 1.385308 0.066218 0.000001 0.000000 0.000000 -0.000001 0.000000 0.000001 11.180872 -32.884144 9.072717 5.497855 -30.582387 20.362640 -0.000919 -88.047033 -0.000889 18.296827 -0.662737 -33.243914 14.161890 3.759019 1.663016 6.481380 14.109448 -2.313761 0.000001 -0.000001 -0.000001 0.326200 4.093238 -17.182265 0.671779 2.725844 -27.684398 0.000001 0.000001 0.000001 0.451870 4.455938 -20.937021 1.402853 3.804922 -40.465456 0.000000 -0.000001 -0.000001 0.775233 5.156062 -28.490556 1.697665 4.124798 -44.727057 -0.000000 0.000001 -0.000001 0.859772 5.305907 -30.175427 1.665198 4.091848 -44.273973 -0.000001 -0.000003 0.000003 -0.000001 -0.000001 0.000001 -0.000001 -0.000001 0.000001 -0.000000 -0.000001 0.000001 -0.000002 0.000001 -0.000000 -0.000002 0.000000 0.000000 -0.000002 0.000001 -0.000000 -0.000002 0.000000 -0.000000 14.762202 19.157834 5.057434 -10.562739 27.408709 17.868118 0.000008 66.185947 0.000010 1.683904 -3.756078 -25.726621 -3.639023 -4.412498 -8.337036 4.761593 -29.499549 14.569234 -0.000001 -0.000001 0.000001 0.923135 -4.998058 35.653905 2.296620 -4.015744 59.517415 0.000001 0.000000 0.000001 6.429646 -9.816297 49.746399 0.736382 -2.515251 32.631799 0.000001 0.000000 0.000001 6.171150 -10.368682 44.579501 0.724616 -2.496778 32.362249 -0.000003 -0.000001 0.000000 5.736553 -14.446485 26.965507 0.651536 -2.377642 30.644187 0.000001 -0.000004 -0.000001 -0.000001 0.000000 0.000004 0.000000 0.000001 0.000000 -0.000001 -0.000000 0.000004 -0.000001 -0.000001 0.000002 -0.000000 0.000000 0.000002 -0.000001 -0.000001 0.000002 -0.000000 0.000000 0.000002 0.000001 -0.000001 0.000000 0.000001 -0.000001 0.000000 0.000001 -0.000001 0.000000 0.000001 -0.000001 0.000000 0.000001 -0.000001 0.000000 0.000001 -0.000001 0.000000 0.000001 -0.000001 0.000000 -0.000000 -0.000001 0.000000 0.000000 -0.000000 0.000001 
2.134642 14.917320 19.728706 -31.613930 -8.364002 -12.935711 0.000000 -0.000000 -0.000000 -143.211431 -19.033499 -0.523403 92.805831 -7.567989 9.634900 70.690825 -0.947000 -5.468271 -0.000000 0.000001 0.000000 0.000000 -0.000000 0.000001 -117.231427 -43.633021 -79.340693 118.063057 13.052456 12.253091 43.242863 19.015974 14.734050 0.000001 -0.000000 -0.000001 0.000000 0.000000 0.000000 31.473771 -1.167036 6.104233 23.655754 1.711402 0.254107 8.435566 1.907411 -0.512648 -1.017426 1.395819 0.070347 -1.017407 1.395812 0.070349 -0.000002 -0.000000 -0.000000 -1.017373 1.395812 0.070350 -1.017329 1.395820 0.070346 0.000001 0.000000 -0.000000 -0.000002 -0.000000 -0.000000 11.181161 -32.882778 9.073152 5.455358 -30.581120 20.334790 -0.001074 -88.045182 -0.001089 18.340740 -0.659599 -33.233201 14.161893 3.759018 1.663018 6.481382 14.109449 -2.313763 0.000001 0.000001 -0.000001 0.326201 4.093239 -17.182266 0.671778 2.725845 -27.684396 0.000000 0.000000 -0.000001 0.451870 4.455939 -20.937023 1.402853 3.804921 -40.465449 -0.000001 -0.000000 -0.000002 0.775232 5.156063 -28.490556 1.697668 4.124799 -44.727057 0.000001 0.000001 0.000001 0.859774 5.305909 -30.175427 1.665197 4.091850 -44.273976 0.000000 -0.000003 -0.000001 -0.000001 0.000001 -0.000001 -0.000001 0.000001 -0.000001 -0.000001 0.000000 -0.000001 -0.000001 0.000001 -0.000000 -0.000000 0.000001 0.000001 -0.000001 0.000001 -0.000000 -0.000001 0.000001 0.000000 14.762692 19.164176 5.055376 -10.575292 27.408161 17.860306 0.000020 66.173755 -0.000025 1.715709 -3.741584 -25.683741 -3.639021 -4.412496 -8.337036 4.761591 -29.499546 14.569236 -0.000000 -0.000000 -0.000000 0.923143 -4.998055 35.653895 2.296621 -4.015741 59.517415 -0.000002 0.000001 0.000000 6.429651 -9.816295 49.746392 0.736383 -2.515252 32.631806 0.000001 0.000001 0.000000 6.171157 -10.368681 44.579490 0.724612 -2.496779 32.362252 0.000001 -0.000003 -0.000001 5.736561 -14.446489 26.965507 0.651532 -2.377645 30.644194 0.000002 -0.000000 -0.000000 0.000001 0.000001 -0.000001 0.000003 0.000001 0.000003 0.000001 0.000001 0.000002 0.000003 0.000001 -0.000000 0.000004 0.000000 0.000001 0.000003 0.000001 -0.000000 0.000004 -0.000000 0.000001 -0.000000 -0.000001 0.000000 -0.000000 -0.000001 0.000000 -0.000000 -0.000001 0.000000 -0.000000 -0.000001 0.000000 -0.000000 -0.000001 0.000000 -0.000000 -0.000001 0.000000 -0.000000 -0.000001 0.000000 -0.000000 -0.000002 -0.000000 0.000000 -0.000000 -0.000000 
2.136066 14.916115 19.727161 -31.623984 -8.359165 -12.942335 -0.000000 -0.000000 -0.000001 -143.201623 -19.017818 -0.531654 92.805236 -7.581343 9.636122 70.672568 -0.943390 -5.464858 -0.000001 -0.000001 -0.000000 0.000000 0.000000 0.000001 -117.229064 -43.638427 -79.353493 118.063809 13.054870 12.247363 43.240090 19.012733 14.738447 0.000000 -0.000000 -0.000001 0.000003 0.000001 -0.000000 31.482565 -1.169975 6.104724 23.658703 1.711041 0.255187 8.438583 1.906056 -0.511654 -1.018004 1.408133 0.077050 -1.017989 1.408133 0.077051 0.000002 -0.000001 0.000001 -1.017975 1.408134 0.077049 -1.017965 1.408136 0.077048 0.000001 0.000000 0.000000 0.000002 -0.000001 0.000000 11.183490 -32.885274 9.079360 5.412638 -30.577107 20.305802 -0.000837 -88.049820 -0.000803 18.362427 -0.654954 -33.231729 14.161888 3.759018 1.663015 6.481381 14.109447 -2.313761 -0.000002 0.000001 -0.000001 0.326200 4.093238 -17.182266 0.671780 2.725843 -27.684398 0.000000 -0.000002 0.000002 0.451868 4.455938 -20.937018 1.402853 3.804922 -40.465452 -0.000000 -0.000001 -0.000002 0.775232 5.156062 -28.490556 1.697667 4.124798 -44.727057 -0.000000 0.000001 0.000002 0.859773 5.305911 -30.175427 1.665195 4.091843 -44.273973 0.000001 -0.000005 -0.000005 -0.000001 -0.000000 -0.000001 -0.000001 -0.000000 -0.000001 -0.000001 -0.000001 -0.000001 -0.000001 0.000000 -0.000002 -0.000002 0.000000 -0.000002 -0.000001 0.000000 -0.000002 -0.000001 0.000000 -0.000002 14.762199 19.174557 5.059150 -10.571742 27.409052 17.835087 0.000011 66.159473 -0.000020 1.702775 -3.726058 -25.668841 -3.639025 -4.412496 -8.337042 4.761592 -29.499549 14.569237 -0.000002 0.000002 -0.000002 0.923138 -4.998055 35.653898 2.296619 -4.015744 59.517415 -0.000000 0.000000 0.000002 6.429644 -9.816295 49.746392 0.736384 -2.515251 32.631806 0.000001 -0.000000 0.000001 6.171153 -10.368678 44.579497 0.724614 -2.496780 32.362249 0.000001 -0.000001 -0.000001 5.736554 -14.446484 26.965508 0.651534 -2.377644 30.644190 0.000000 -0.000004 -0.000001 -0.000002 0.000002 -0.000004 -0.000001 0.000001 -0.000002 -0.000002 0.000001 -0.000004 0.000001 0.000002 0.000001 0.000002 0.000003 0.000001 0.000001 0.000002 0.000001 0.000002 0.000003 0.000001 -0.000000 -0.000001 -0.000000 -0.000000 -0.000001 -0.000000 -0.000000 -0.000001 -0.000000 -0.000000 -0.000001 -0.000000 -0.000000 -0.000001 -0.000000 -0.000000 -0.000001 -0.000000 -0.000000 -0.000001 -0.000000 0.000000 0.000003 0.000000 -0.000000 -0.000000 -0.000001 
2.136650 14.916824 19.729229 -31.631552 -8.353196 -12.948672 0.000001 -0.000001 -0.000001 -143.197880 -19.012392 -0.537609 92.806288 -7.586613 9.637381 70.669802 -0.942923 -5.464761 -0.000000 -0.000002 -0.000000 -0.000000 0.000000 0.000002 -117.250675 -43.638205 -79.379933 118.063932 13.043328 12.241947 43.264208 19.015793 14.714043 0.000000 -0.000001 -0.000000 0.000000 0.000001 -0.000000 31.492373 -1.172635 6.105041 23.661112 1.710981 0.255728 8.441045 1.905124 -0.511190 -1.018344 1.416770 0.084898 -1.018307 1.416763 0.084899 -0.000001 -0.000000 0.000000 -1.018292 1.416767 0.084896 -1.018386 1.416769 0.084899 -0.000002 0.000000 0.000000 -0.000001 -0.000000 0.000000 11.185988 -32.890062 9.085924 5.382421 -30.572033 20.284383 -0.000752 -88.061062 -0.000732 18.345931 -0.645837 -33.228775 14.161888 3.759017 1.663013 6.481377 14.109450 -2.313761 0.000002 -0.000002 -0.000003 0.326201 4.093237 -17.182263 0.671779 2.725845 -27.684398 0.000001 0.000001 0.000000 0.451870 4.455938 -20.937023 1.402853 3.804922 -40.465449 0.000000 0.000001 -0.000005 0.775232 5.156063 -28.490555 1.697667 4.124797 -44.727063 0.000000 -0.000001 0.000002 0.859773 5.305909 -30.175424 1.665194 4.091846 -44.273973 0.000001 -0.000002 -0.000001 0.000000 0.000000 0.000001 0.000000 0.000000 0.000001 0.000000 0.000000 0.000002 -0.000000 -0.000001 -0.000002 -0.000001 -0.000001 -0.000001 -0.000000 -0.000001 -0.000002 -0.000000 -0.000001 -0.000002 14.761468 19.187195 5.063745 -10.566105 27.408089 17.811412 0.000004 66.147848 -0.000012 1.680736 -3.715672 -25.665561 -3.639020 -4.412495 -8.337039 4.761593 -29.499549 14.569241 0.000000 0.000003 -0.000000 0.923138 -4.998056 35.653905 2.296620 -4.015743 59.517415 -0.000001 -0.000000 -0.000000 6.429643 -9.816296 49.746395 0.736383 -2.515253 32.631802 0.000000 0.000000 0.000000 6.171150 -10.368681 44.579497 0.724615 -2.496774 32.362246 0.000000 -0.000001 -0.000002 5.736550 -14.446485 26.965512 0.651533 -2.377646 30.644187 0.000003 -0.000002 -0.000000 -0.000001 -0.000001 0.000003 -0.000000 0.000001 0.000001 -0.000001 -0.000001 0.000001 0.000002 -0.000003 -0.000003 0.000002 -0.000002 -0.000003 0.000002 -0.000003 -0.000003 0.000002 -0.000002 -0.000003 0.000001 0.000000 -0.000000 0.000001 0.000000 -0.000000 0.000001 0.000000 -0.000000 0.000001 0.000000 -0.000000 0.000001 0.000000 -0.000000 0.000001 0.000000 -0.000000 0.000001 0.000000 -0.000000 0.000000 -0.000001 0.000000 0.000001 -0.000001 -0.000001 
